# AST/ASF file generated using VICON BodyLanguage
# -----------------------------------------------
:version 1.10
:name VICON
:units
  mass 1.0
  length 0.45
  angle deg
:documentation
   .ast/.asf automatically generated from VICON data using
   VICON BodyBuilder and BodyLanguage model FoxedUp or BRILLIANT.MOD
:root
   order TX TY TZ RX RY RZ
   axis XYZ
   position 0 0 0  
   orientation 0 0 0 
:bonedata
  begin
     id 1 
     name lhipjoint
     direction 0.643824 -0.71708 0.266994 
     length 2.52133 
     axis 0 0 0  XYZ
  end
  begin
     id 2 
     name lfemur
     direction 0.34202 -0.939693 0  
     length 7.51824  
     axis 0 0 20  XYZ
    dof rx ry rz
    limits (-160.0 20.0)
           (-70.0 70.0)
           (-60.0 70.0)
  end
  begin
     id 3 
     name ltibia
     direction 0.34202 -0.939693 0   
     length 7.3685   
     axis 0 0 20   XYZ
    dof rx
    limits (-10.0 170.0)
  end
  begin
     id 4 
     name lfoot
     direction 0.105419 -0.289636 0.951314   
     length 2.20972   
     axis -90 7.62852e-016 20   XYZ
    dof rx rz
    limits (-45.0 90.0)
           (-70.0 20.0)
  end
  begin
     id 5 
     name ltoes
     direction 1.53549e-011 -4.21833e-011 1   
     length 1.10139   
     axis -90 7.62852e-016 20   XYZ
    dof rx
    limits (-90.0 20.0)
  end
  begin
     id 6 
     name rhipjoint
     direction -0.608823 -0.743445 0.276811   
     length 2.43192  
     axis 0 0 0  XYZ 
  end
  begin
     id 7 
     name rfemur
     direction -0.34202 -0.939693 0   
     length 7.69715   
     axis 0 0 -20   XYZ
    dof rx ry rz
    limits (-160.0 20.0)
           (-70.0 70.0)
           (-70.0 60.0)
  end
  begin
     id 8 
     name rtibia
     direction -0.34202 -0.939693 0   
     length 7.44924   
     axis 0 0 -20   XYZ
    dof rx
    limits (-10.0 170.0)
 end
 begin
     id 9 
     name rfoot
     direction -0.103614 -0.284677 0.953007   
     length 2.22623  
     axis -90 -7.62852e-016 -20   XYZ
    dof rx rz
    limits (-45.0 90.0)
           (-20.0 70.0)
  end
  begin
     id 10 
     name rtoes
     direction -1.53537e-011 -4.22026e-011 1   
     length 1.11   
     axis -90 -7.62852e-016 -20   XYZ
    dof rx
    limits (-90.0 20.0)
  end
  begin
     id 11 
     name lowerback
     direction -0.0101212 0.99662 -0.0815298   
     length 2.08277   
     axis 0 0 0   XYZ
    dof rx ry rz
    limits (-20.0 45.0)
           (-30.0 30.0)
           (-30.0 30.0)
  end
  begin
     id 12 
     name upperback
     direction 0.024314 0.999591 -0.0150645   
     length 2.08524   
     axis 0 0 0   XYZ
    dof rx ry rz
    limits (-20.0 45.0)
           (-30.0 30.0)
           (-30.0 30.0)
  end
  begin
     id 13 
     name thorax
     direction 0.0285959 0.999323 0.0231357   
     length 2.09645   
     axis 0 0 0   XYZ
    dof rx ry rz
    limits (-20.0 45.0)
           (-30.0 30.0)
           (-30.0 30.0)
  end
  begin
     id 14 
     name lowerneck
     direction -0.065512 0.979301 0.191515   
     length 1.63798   
     axis 0 0 0   XYZ
    dof rx ry rz
    limits (-20.0 45.0)
           (-30.0 30.0)
           (-30.0 30.0)
  end
  begin
     id 15 
     name upperneck
     direction 0.0498479 0.98191 -0.182667   
     length 1.68731   
     axis 0 0 0   XYZ
    dof rx ry rz
    limits (-20.0 45.0)
           (-30.0 30.0)
           (-30.0 30.0)
  end
  begin
     id 16
     name head
     direction 0.0230358 0.996257 -0.0833175  
     length 1.69785  
     axis 0 0 0   XYZ
    dof rx ry rz
    limits (-20.0 45.0)
           (-30.0 30.0)
           (-30.0 30.0)
  end
  begin
     id 17 
     name lclavicle
     direction 0.967963 0.201165 -0.150269  
     length 3.63976  
     axis 0 0 0   XYZ
    dof ry rz
    limits (-20.0 10.0)
           (0.0 20.0)
  end
  begin
     id 18 
     name lhumerus
     direction 1 -4.48954e-011 -2.92837e-028   
     length 5.32462   
     axis 180 -30 -90   XYZ
    dof rx ry rz
    limits (-60.0 90.0)
           (-90.0 90.0)
           (-90.0 90.0)
  end
  begin
     id 19
     name lradius
     direction 1 -4.48958e-011 -6.39511e-027   
     length 3.48402   
     axis 180 -30 -90   XYZ
    dof rx
    limits (-10.0 170.0)
  end
  begin
     id 20
     name lwrist
     direction 1 -4.48975e-011 -1.1413e-026   
     length 1.74201   
     axis 6.88575e-015 90 90   XYZ
    dof ry
    limits (-180.0 0.0)
 end
  begin
     id 21 
     name lhand
     direction 1 -4.48899e-011 -2.28192e-026   
     length 0.572476   
     axis 1.45643e-014 90 90   XYZ
    dof rx rz
    limits (-90.0 90.0)
           (-45.0 45.0)
  end
  begin
     id 22 
     name lfingers
     direction 1 -4.49155e-011 -4.5684e-026   
     length 0.461545   
     axis 2.91283e-014 90 90   XYZ
    dof rx
    limits (0.0 90.0)
  end
  begin
     id 23
     name lthumb
     direction 0.707107 -6.34943e-011 0.707107   
     length 0.662688   
     axis -90 45 -2.25915e-014   XYZ
    dof rx rz
    limits (-45.0 45.0)
           (-45.0 45.0)
  end
  begin
     id 24 
     name rclavicle
     direction -0.964103 0.264019 -0.0282629   
     length 3.54491  
     axis 0 0 0   XYZ 
    dof ry rz
    limits (-10.0 20.0)
           (-20.0 0.0)
  end
  begin
     id 25 
     name rhumerus
     direction -1 -4.48964e-011 -2.45032e-027  
     length 5.33589   
     axis 180 30 90   XYZ
    dof rx ry rz
    limits (-90.0 60.0)
           (-90.0 90.0)
           (-90.0 90.0)
  end
  begin
     id 26 
     name rradius
     direction -1 -4.48987e-011 -1.55093e-027   
     length 3.64134   
     axis 180 30 90   XYZ
    dof rx
    limits (-10.0 170.0)
  end
  begin
     id 27 
     name rwrist
     direction -1 -4.4897e-011 -1.14128e-026   
     length 1.82067   
     axis 6.88575e-015 -90 -90   XYZ
    dof ry
    limits (-180.0 0.0)
  end
  begin
     id 28
     name rhand
     direction -1 -4.49021e-011 -2.28301e-026   
     length 0.734811   
     axis 1.45643e-014 -90 -90   XYZ
    dof rx rz
    limits (-90.0 90.0)
           (-45.0 45.0)
  end
  begin
     id 29
     name rfingers
     direction -1 -4.48862e-011 -4.56319e-026   
     length 0.592424   
     axis 2.91283e-014 -90 -90   XYZ
    dof rx
    limits (0.0 90.0)
  end
  begin
     id 30
     name rthumb
     direction -0.707107 -6.34978e-011 0.707107   
     length 0.850605   
     axis -90 -45 2.25915e-014   XYZ
    dof rx rz
    limits (-45.0 45.0)
           (-45.0 45.0)
  end
:hierarchy
  begin
    root lhipjoint rhipjoint lowerback
    lhipjoint lfemur
    lfemur ltibia
    ltibia lfoot
    lfoot ltoes
    rhipjoint rfemur
    rfemur rtibia
    rtibia rfoot
    rfoot rtoes
    lowerback upperback
    upperback thorax
    thorax lowerneck lclavicle rclavicle
    lowerneck upperneck
    upperneck head
    lclavicle lhumerus
    lhumerus lradius
    lradius lwrist
    lwrist lhand lthumb
    lhand lfingers
    rclavicle rhumerus
    rhumerus rradius
    rradius rwrist
    rwrist rhand rthumb
    rhand rfingers
  end

#!OML:ASF F:\VICON\USERDATA\INSTALL\rory3\rory3.ASF
:FULLY-SPECIFIED
:DEGREES
173
root 0.332025 17.2726 -0.658876 34.4043 -26.0353 15.149
lowerback 48.6721 -2.36687 11.6876
upperback 7.96379 3.95885 8.91752
thorax -11.2891 1.14819 2.67303
lowerneck -27.9738 -9.28624 -9.92784
upperneck 5.29711 -10.5098 10.4827
head 7.06807 -4.4434 3.55382
rclavicle 3.81667e-014 2.16675e-014
rhumerus 49.9785 -19.1863 -67.9053
rradius 27.8976
rwrist 32.579
rhand -40.8315 -14.2036
rfingers 7.12502
rthumb -13.7692 -43.728
lclavicle 3.81667e-014 2.16675e-014
lhumerus 21.0764 -28.4902 75.4942
lradius 64.4177
lwrist 0.315683
lhand -18.897 22.5008
lfingers 7.12502
lthumb 7.40456 52.3513
rfemur -71.343 -0.840386 -4.80597
rtibia 43.0151
rfoot -6.74489 0.156069
rtoes 10.2153
lfemur -50.6404 14.6952 -40.1109
ltibia 24.132
lfoot -7.30863 8.41404
ltoes -21.9542
174
root 0.35681 17.2762 -0.664775 34.3138 -25.812 15.07
lowerback 48.0349 -2.36235 11.5501
upperback 7.93337 3.81106 8.90028
thorax -11.2288 1.10296 2.74999
lowerneck -27.7298 -9.14296 -10.1993
upperneck 5.04508 -10.2391 10.5795
head 6.94261 -4.32168 3.67899
rclavicle 8.5875e-014 7.0171e-014
rhumerus 48.1085 -18.3887 -66.9579
rradius 29.9422
rwrist 31.866
rhand -41.0083 -14.3449
rfingers 7.12502
rthumb -13.9396 -43.8576
lclavicle 8.5875e-014 7.0171e-014
lhumerus 20.1339 -28.297 75.7964
lradius 64.497
lwrist 0.321613
lhand -18.4045 22.7678
lfingers 7.12502
lthumb 7.87991 52.6009
rfemur -71.0488 -0.833743 -4.89399
rtibia 42.7879
rfoot -6.69813 0.121075
rtoes 13.159
lfemur -50.4866 14.4334 -39.8309
ltibia 24.135
lfoot -7.34957 8.56522
ltoes -21.7435
175
root 0.381966 17.2816 -0.67338 34.248 -25.578 14.9301
lowerback 47.5004 -1.77523 11.4855
upperback 7.81391 4.41775 8.97145
thorax -11.2993 1.36868 2.56127
lowerneck -27.8609 -9.20452 -9.19677
upperneck 4.89238 -10.5363 9.7746
head 6.83085 -4.51654 3.20912
rclavicle -4.45278e-014 4.92986e-014
rhumerus 45.5374 -18.947 -65.4582
rradius 32.095
rwrist 31.517
rhand -41.192 -14.6678
rfingers 7.12502
rthumb -14.1167 -44.1683
lclavicle -4.45278e-014 4.92986e-014
lhumerus 19.8227 -29.6337 76.1517
lradius 64.3859
lwrist 0.462333
lhand -18.208 22.8458
lfingers 7.12502
lthumb 8.06955 52.6717
rfemur -70.7826 -0.879966 -4.77764
rtibia 42.5349
rfoot -6.65598 0.0268978
rtoes 14.2289
lfemur -50.3962 14.2755 -39.5714
ltibia 24.1995
lfoot -7.39523 8.58667
ltoes -21.8592
176
root 0.409785 17.2909 -0.684125 34.2067 -25.2787 14.7037
lowerback 46.1342 -1.44252 10.7061
upperback 8.77017 4.25223 9.57407
thorax -11.3448 1.36611 3.17673
lowerneck -28.0819 -8.89506 -9.13914
upperneck 4.71545 -10.0598 9.39622
head 6.72958 -4.31804 3.14887
rclavicle 3.18055e-015 2.98177e-014
rhumerus 44.0197 -17.788 -64.5734
rradius 33.9815
rwrist 31.4676
rhand -41.5244 -15.0436
rfingers 7.12502
rthumb -14.4369 -44.5214
lclavicle 3.18055e-015 2.98177e-014
lhumerus 18.8149 -29.0606 76.7044
lradius 64.3039
lwrist 0.376662
lhand -18.4273 22.6614
lfingers 7.12502
lthumb 7.85796 52.4953
rfemur -70.4867 -0.995229 -4.45808
rtibia 42.2888
rfoot -6.55955 -0.0272109
rtoes 13.9692
lfemur -50.2622 13.9374 -39.0732
ltibia 24.3013
lfoot -7.43003 8.78913
ltoes -21.8787
177
root 0.43849 17.2998 -0.693749 34.1222 -25.0416 14.5529
lowerback 45.5981 -1.70083 11.0151
upperback 8.66355 3.92031 8.84549
thorax -11.205 1.24133 2.36724
lowerneck -28.2057 -8.4935 -7.93661
upperneck 4.38087 -9.89615 9.31907
head 6.56494 -4.22204 2.96758
rclavicle -5.40694e-014 -1.40491e-013
rhumerus 42.4713 -17.5955 -65.2379
rradius 35.6843
rwrist 31.8339
rhand -41.7757 -15.2893
rfingers 7.12502
rthumb -14.679 -44.7497
lclavicle -5.40694e-014 -1.40491e-013
lhumerus 18.2801 -29.4389 75.6411
lradius 64.4544
lwrist 0.569949
lhand -18.4372 22.6904
lfingers 7.12502
lthumb 7.84834 52.5247
rfemur -70.1933 -1.12554 -4.24753
rtibia 42.0728
rfoot -6.43716 -0.03465
rtoes 14.408
lfemur -50.0786 13.4441 -38.5431
ltibia 24.3675
lfoot -7.43594 9.19887
ltoes -21.8993
178
root 0.466573 17.3083 -0.702289 33.9714 -24.8053 14.4174
lowerback 45.2015 -1.38118 10.7144
upperback 8.43221 4.19327 9.11874
thorax -11.4325 1.35928 2.68119
lowerneck -27.7851 -8.51624 -8.38456
upperneck 4.081 -9.76635 9.1945
head 6.40633 -4.19652 3.02622
rclavicle 5.08889e-014 -2.19906e-014
rhumerus 40.5525 -16.9552 -63.9583
rradius 37.4125
rwrist 31.7178
rhand -41.9689 -15.5547
rfingers 7.12502
rthumb -14.8652 -45.0014
lclavicle 5.08889e-014 -2.19906e-014
lhumerus 17.0986 -29.6988 76.673
lradius 64.53
lwrist 0.48656
lhand -18.2898 22.8718
lfingers 7.12502
lthumb 7.99062 52.7008
rfemur -69.8217 -1.22887 -4.06162
rtibia 41.8645
rfoot -6.36933 0.00618724
rtoes 14.7833
lfemur -49.8302 12.9376 -37.9921
ltibia 24.4258
lfoot -7.42581 9.62662
ltoes -21.7328
